<svg xmlns="http://www.w3.org/2000/svg" viewBox="0 0 206.33 150.37"><defs><style>.cls-1{fill:#232528;}</style></defs><title>concurrentBuild</title><g id="Layer_2" data-name="Layer 2"><g id="Layer_1-2" data-name="Layer 1"><path class="cls-1" d="M103.63,59.26a29.63,29.63,0,1,1,29.63-29.63A29.66,29.66,0,0,1,103.63,59.26Zm0-49.26a19.63,19.63,0,1,0,19.63,19.63A19.66,19.66,0,0,0,103.63,10Z"/><path class="cls-1" d="M29.63,150.37a29.63,29.63,0,1,1,29.63-29.63A29.66,29.66,0,0,1,29.63,150.37Zm0-49.26a19.63,19.63,0,1,0,19.63,19.63A19.66,19.66,0,0,0,29.63,101.11Z"/><path class="cls-1" d="M103.86,150.37a29.63,29.63,0,1,1,29.63-29.63A29.66,29.66,0,0,1,103.86,150.37Zm0-49.26a19.63,19.63,0,1,0,19.63,19.63A19.66,19.66,0,0,0,103.86,101.11Z"/><path class="cls-1" d="M176.71,150.37a29.63,29.63,0,1,1,29.62-29.63A29.66,29.66,0,0,1,176.71,150.37Zm0-49.26a19.63,19.63,0,1,0,19.62,19.63A19.65,19.65,0,0,0,176.71,101.11Z"/><path class="cls-1" d="M28.36,99.49a5,5,0,0,1-5-5V43.16A18.89,18.89,0,0,1,42.23,24.28H78.31a5,5,0,0,1,0,10H42.23a8.88,8.88,0,0,0-8.87,8.88V94.49A5,5,0,0,1,28.36,99.49Z"/><path class="cls-1" d="M176.82,99.49a5,5,0,0,1-5-5V43.16A8.88,8.88,0,0,0,163,34.28H129.41a5,5,0,0,1,0-10H163a18.9,18.9,0,0,1,18.87,18.88V94.49A5,5,0,0,1,176.82,99.49Z"/><path class="cls-1" d="M104.44,100.42a5,5,0,0,1-5-5V54.26a5,5,0,1,1,10,0V95.42A5,5,0,0,1,104.44,100.42Z"/></g></g></svg>