<svg xmlns="http://www.w3.org/2000/svg" viewBox="0 0 154.69 153.59"><defs><style>.cls-1{fill:#232528;}</style></defs><title>env</title><g id="Layer_2" data-name="Layer 2"><g id="Layer_1-2" data-name="Layer 1"><path class="cls-1" d="M38.18,130A27.64,27.64,0,0,1,19,122.31C9.22,113,1.55,78.48.11,71.65a5,5,0,0,1,5.66-6c6.9,1.08,41.8,6.89,51.61,16.19h0A27.87,27.87,0,0,1,39,130ZM11.54,76.81c3.54,14.58,9.4,33.54,14.37,38.25A17.88,17.88,0,0,0,50.5,89.11h0C45.52,84.4,26.28,79.57,11.54,76.81Z"/><path class="cls-1" d="M54.8,122.82a5,5,0,0,1-3.44-1.37l-24.9-23.6a5,5,0,1,1,6.88-7.26l24.9,23.6a5,5,0,0,1-3.44,8.63Z"/><path class="cls-1" d="M69.84,78.17a27.92,27.92,0,0,1-27.58-24C40.37,40.83,55.85,9,59,2.76a5,5,0,0,1,8.15-1.15C71.86,6.74,95.56,33,97.46,46.39h0a27.9,27.9,0,0,1-23.7,31.5A27.3,27.3,0,0,1,69.84,78.17ZM64.72,14c-1.57,3.41-3.54,7.83-5.44,12.53C52,44.39,51.89,50.85,52.16,52.8a17.88,17.88,0,0,0,35.4-5h0c-.28-1.95-2.21-8.11-14.14-23.3C70.29,20.51,67.18,16.81,64.72,14Z"/><path class="cls-1" d="M73.06,77.94a5,5,0,0,1-5-4.3l-4.8-34a5,5,0,0,1,9.9-1.4l4.8,34a5,5,0,0,1-4.25,5.65A4.12,4.12,0,0,1,73.06,77.94Z"/><path class="cls-1" d="M122.25,123.32A27.86,27.86,0,0,1,100,78.76c8.1-10.81,41.52-22.45,48.13-24.67A5,5,0,0,1,154.68,59c-.26,7-2,42.32-10.08,53.13h0A27.85,27.85,0,0,1,122.25,123.32Zm22-57.28C130.22,71.25,112.07,79.27,108,84.75a17.87,17.87,0,1,0,28.62,21.41h0C140.7,100.68,143.26,81,144.29,66Zm-3.69,43.12h0Z"/><path class="cls-1" d="M108.58,118.77a5,5,0,0,1-4-8l20.55-27.47a5,5,0,0,1,8,6l-20.55,27.47A5,5,0,0,1,108.58,118.77Z"/><path class="cls-1" d="M65.45,153.59a5,5,0,0,1-2.75-9.19c.94-.63,20.46-14.45,11.22-57.76a5,5,0,0,1,9.78-2.09c10.81,50.66-14.48,67.55-15.56,68.24A4.93,4.93,0,0,1,65.45,153.59Z"/></g></g></svg>