<svg xmlns="http://www.w3.org/2000/svg" viewBox="0 0 184.7 134.35"><defs><style>.cls-1{fill:#232528;}</style></defs><title>integratedDeployment</title><g id="Layer_2" data-name="Layer 2"><g id="Layer_1-2" data-name="Layer 1"><path class="cls-1" d="M140.16,134.35c-11.85,0-23-5.17-32.15-14.95C99.21,110,92.12,99.12,85.27,88.57c-2.63-4.06-5.36-8.25-8.11-12.23l-.82-1.2c-5.77-8.38-11.21-16.29-20-19.48a34.55,34.55,0,1,0,19.27,47.6,5,5,0,0,1,9,4.38A44.53,44.53,0,1,1,59.77,46.26c11.79,4.29,18.7,14.34,24.81,23.21l.82,1.19C88.22,74.75,91,79,93.66,83.12c6.61,10.18,13.45,20.71,21.64,29.44,5,5.38,13.47,11.79,24.86,11.79A34.55,34.55,0,1,0,108.6,75.71a5,5,0,1,1-9.12-4.09,44.55,44.55,0,1,1,40.68,62.73Z"/><path class="cls-1" d="M91.11,54.9a5,5,0,0,1-5-5V14.7a5,5,0,1,1,10,0V49.9A5,5,0,0,1,91.11,54.9Z"/><path class="cls-1" d="M105,23.3a5,5,0,0,1-3.43-1.36L91,12l-9,9.44a5,5,0,1,1-7.22-6.91l12.47-13a5,5,0,0,1,7-.18l14.13,13.3A5,5,0,0,1,105,23.3Z"/></g></g></svg>