<svg xmlns="http://www.w3.org/2000/svg" xmlns:xlink="http://www.w3.org/1999/xlink" viewBox="0 0 610.71 615.15"><defs><style>.cls-1{isolation:isolate;}.cls-11,.cls-12,.cls-13,.cls-2,.cls-22,.cls-23,.cls-27,.cls-3,.cls-8,.cls-9{fill:none;}.cls-2,.cls-22,.cls-23,.cls-27,.cls-3{stroke-linecap:round;stroke-linejoin:round;}.cls-2,.cls-22,.cls-23,.cls-3{stroke-width:6px;stroke-dasharray:120 19.83 30 20 20 20;mix-blend-mode:screen;}.cls-2{stroke:url(#New_Gradient_Swatch_1);}.cls-3{stroke:url(#New_Gradient_Swatch_1-2);}.cls-4{fill:url(#New_Gradient_Swatch_1-3);}.cls-5{fill:url(#New_Gradient_Swatch_1-4);}.cls-6{fill:url(#New_Gradient_Swatch_1-5);}.cls-7{opacity:0.99;}.cls-10,.cls-11,.cls-12,.cls-13,.cls-8,.cls-9{stroke-miterlimit:10;}.cls-11,.cls-12,.cls-13,.cls-8,.cls-9{stroke-width:4px;}.cls-8{stroke:url(#linear-gradient);}.cls-9{stroke:url(#linear-gradient-2);}.cls-10{fill:#232528;stroke:url(#linear-gradient-3);}.cls-11{stroke:url(#linear-gradient-4);}.cls-12{stroke:url(#linear-gradient-5);}.cls-13{stroke:url(#linear-gradient-6);}.cls-14,.cls-15,.cls-16,.cls-17{opacity:0.23;}.cls-14{fill:url(#New_Gradient_Swatch_1-6);}.cls-15{fill:url(#New_Gradient_Swatch_1-7);}.cls-16{fill:url(#New_Gradient_Swatch_1-8);}.cls-17{fill:url(#New_Gradient_Swatch_1-9);}.cls-18,.cls-19{opacity:0.52;}.cls-18{fill:url(#New_Gradient_Swatch_1-10);}.cls-19{fill:url(#New_Gradient_Swatch_1-11);}.cls-20{fill:url(#New_Gradient_Swatch_1-12);}.cls-21{fill:#fff;}.cls-22{stroke:url(#New_Gradient_Swatch_1-13);}.cls-23{stroke:url(#New_Gradient_Swatch_1-14);}.cls-24{fill:url(#New_Gradient_Swatch_1-15);}.cls-25{fill:url(#New_Gradient_Swatch_1-16);}.cls-26{fill:url(#New_Gradient_Swatch_1-17);}.cls-27{stroke:#fff;stroke-width:10px;}.cls-28{opacity:0.57;}.cls-29{fill:url(#New_Gradient_Swatch_1-18);}.cls-30{fill:url(#linear-gradient-7);}.cls-31{fill:url(#New_Gradient_Swatch_1-19);}.cls-32{fill:url(#New_Gradient_Swatch_1-20);}.cls-33{fill:url(#linear-gradient-8);}.cls-34{fill:url(#New_Gradient_Swatch_1-21);}.cls-35{opacity:0.53;}.cls-36{fill:url(#New_Gradient_Swatch_1-22);}.cls-37{fill:url(#linear-gradient-9);}.cls-38{fill:url(#New_Gradient_Swatch_1-23);}</style><linearGradient id="New_Gradient_Swatch_1" x1="-590.73" y1="-834.6" x2="-590.73" y2="-750.04" gradientTransform="translate(892.49 -183.47) rotate(-92.17)" gradientUnits="userSpaceOnUse"><stop offset="0" stop-color="#22219b"/><stop offset="0.14" stop-color="#21269e"/><stop offset="0.31" stop-color="#1e34a7"/><stop offset="0.49" stop-color="#194bb7"/><stop offset="0.67" stop-color="#116bcc"/><stop offset="0.86" stop-color="#0894e8"/><stop offset="1" stop-color="#00b7ff"/></linearGradient><linearGradient id="New_Gradient_Swatch_1-2" x1="279.81" y1="1101.18" x2="279.81" y2="1169.3" gradientTransform="translate(-247.52 -648.2) rotate(-2.17)" xlink:href="#New_Gradient_Swatch_1"/><linearGradient id="New_Gradient_Swatch_1-3" x1="-15.05" y1="-1624.97" x2="-15.05" y2="-1554.16" gradientTransform="translate(1331.23 -533.35) rotate(-127.41)" xlink:href="#New_Gradient_Swatch_1"/><linearGradient id="New_Gradient_Swatch_1-4" x1="1819.39" y1="-1245.22" x2="1819.39" y2="-1200.58" gradientTransform="translate(300.64 -1649.61) rotate(129.93)" xlink:href="#New_Gradient_Swatch_1"/><linearGradient id="New_Gradient_Swatch_1-5" x1="1668.09" y1="-1268.52" x2="1668.09" y2="-1223.89" gradientTransform="translate(300.64 -1649.61) rotate(129.93)" xlink:href="#New_Gradient_Swatch_1"/><linearGradient id="linear-gradient" x1="186.71" y1="121.48" x2="566.71" y2="121.48" gradientTransform="matrix(1, 0, 0, 1, 0, 0)" xlink:href="#New_Gradient_Swatch_1"/><linearGradient id="linear-gradient-2" x1="189.15" y1="26.6" x2="564.28" y2="26.6" gradientTransform="matrix(1, 0, 0, 1, 0, 0)" xlink:href="#New_Gradient_Swatch_1"/><linearGradient id="linear-gradient-3" x1="202.71" y1="14.74" x2="214.25" y2="14.74" gradientTransform="matrix(1, 0, 0, 1, 0, 0)" xlink:href="#New_Gradient_Swatch_1"/><linearGradient id="linear-gradient-4" x1="202.97" y1="14.74" x2="214" y2="14.74" gradientTransform="matrix(1, 0, 0, 1, 0, 0)" xlink:href="#New_Gradient_Swatch_1"/><linearGradient id="linear-gradient-5" x1="220.54" y1="14.74" x2="231.57" y2="14.74" gradientTransform="matrix(1, 0, 0, 1, 0, 0)" xlink:href="#New_Gradient_Swatch_1"/><linearGradient id="linear-gradient-6" x1="238.11" y1="14.74" x2="249.14" y2="14.74" gradientTransform="matrix(1, 0, 0, 1, 0, 0)" xlink:href="#New_Gradient_Swatch_1"/><linearGradient id="New_Gradient_Swatch_1-6" x1="254.05" y1="1.23" x2="352.23" y2="99.4" gradientTransform="matrix(1, 0, 0, 1, 0, 0)" xlink:href="#New_Gradient_Swatch_1"/><linearGradient id="New_Gradient_Swatch_1-7" x1="289.52" y1="0.9" x2="456.44" y2="167.82" gradientTransform="matrix(1, 0, 0, 1, 0, 0)" xlink:href="#New_Gradient_Swatch_1"/><linearGradient id="New_Gradient_Swatch_1-8" x1="278.21" y1="42.96" x2="422.07" y2="186.82" gradientTransform="matrix(1, 0, 0, 1, 0, 0)" xlink:href="#New_Gradient_Swatch_1"/><linearGradient id="New_Gradient_Swatch_1-9" x1="288.32" y1="63.61" x2="451.94" y2="227.23" gradientTransform="matrix(1, 0, 0, 1, 0, 0)" xlink:href="#New_Gradient_Swatch_1"/><linearGradient id="New_Gradient_Swatch_1-10" x1="-524.63" y1="-50.05" x2="-347.63" y2="126.95" gradientTransform="matrix(0.87, -0.5, 1, 0.58, 505.53, 110.71)" xlink:href="#New_Gradient_Swatch_1"/><linearGradient id="New_Gradient_Swatch_1-11" x1="-574.5" y1="-6.63" x2="-397.5" y2="170.37" gradientTransform="matrix(0.87, -0.5, 1, 0.58, 505.53, 110.71)" xlink:href="#New_Gradient_Swatch_1"/><linearGradient id="New_Gradient_Swatch_1-12" x1="-474.71" y1="-105.65" x2="-297.71" y2="71.35" gradientTransform="matrix(0.86, -0.51, 1.01, 0.57, 514.57, 111.96)" xlink:href="#New_Gradient_Swatch_1"/><linearGradient id="New_Gradient_Swatch_1-13" x1="892.25" y1="410.66" x2="892.25" y2="650.77" gradientTransform="matrix(0.82, 0.58, -0.58, 0.82, -11.34, -561.05)" xlink:href="#New_Gradient_Swatch_1"/><linearGradient id="New_Gradient_Swatch_1-14" x1="1504.87" y1="-370.12" x2="1504.87" y2="-179.02" gradientTransform="matrix(-0.58, 0.82, -0.82, -0.58, 1050.42, -1184.16)" xlink:href="#New_Gradient_Swatch_1"/><linearGradient id="New_Gradient_Swatch_1-15" x1="475.21" y1="160.95" x2="475.21" y2="371.95" gradientTransform="matrix(1, 0, 0, 1, 0, 0)" xlink:href="#New_Gradient_Swatch_1"/><linearGradient id="New_Gradient_Swatch_1-16" x1="40.93" y1="-1316.15" x2="40.93" y2="-1183.15" gradientTransform="translate(1512.76 -140.35) rotate(-102.66)" xlink:href="#New_Gradient_Swatch_1"/><linearGradient id="New_Gradient_Swatch_1-17" x1="-409.94" y1="-1385.6" x2="-409.94" y2="-1252.6" gradientTransform="translate(1512.76 -140.35) rotate(-102.66)" xlink:href="#New_Gradient_Swatch_1"/><linearGradient id="New_Gradient_Swatch_1-18" x1="2274.98" y1="441.87" x2="2226.16" y2="420.72" gradientTransform="matrix(-0.14, 0.99, -0.91, -0.71, 1211.45, -1493.78)" xlink:href="#New_Gradient_Swatch_1"/><linearGradient id="linear-gradient-7" x1="47.09" y1="87.75" x2="88.82" y2="87.75" gradientTransform="matrix(0.93, -0.38, 0.91, 0.71, 390.32, 365.17)" gradientUnits="userSpaceOnUse"><stop offset="0" stop-color="#106fcf"/><stop offset="0.4" stop-color="#0a89e1"/><stop offset="1" stop-color="#00b7ff"/></linearGradient><linearGradient id="New_Gradient_Swatch_1-19" x1="868.61" y1="-758.96" x2="910.33" y2="-758.96" gradientTransform="matrix(0.14, -0.99, 1.07, -0.44, 1237.98, 986.22)" xlink:href="#New_Gradient_Swatch_1"/><linearGradient id="New_Gradient_Swatch_1-20" x1="1720.99" y1="939.31" x2="1675.48" y2="919.6" gradientTransform="matrix(0.57, 0.82, -1.15, 0.09, 273.96, -1341.5)" xlink:href="#New_Gradient_Swatch_1"/><linearGradient id="linear-gradient-8" x1="598.01" y1="-887.52" x2="636.9" y2="-887.52" gradientTransform="matrix(0.43, -0.9, 1.15, -0.09, 917.51, 586.14)" xlink:href="#linear-gradient-7"/><linearGradient id="New_Gradient_Swatch_1-21" x1="1999.05" y1="-1259.63" x2="2037.94" y2="-1259.63" gradientTransform="matrix(-0.57, -0.82, 0.5, -1.04, 1962.45, 475.12)" xlink:href="#New_Gradient_Swatch_1"/><linearGradient id="New_Gradient_Swatch_1-22" x1="2303.07" y1="310.75" x2="2257.56" y2="291.04" gradientTransform="matrix(-0.61, 0.8, -0.44, -1.07, 1713.61, -1006.49)" xlink:href="#New_Gradient_Swatch_1"/><linearGradient id="linear-gradient-9" x1="15.93" y1="245.14" x2="54.82" y2="245.14" gradientTransform="matrix(0.99, 0.13, 0.44, 1.07, 83.7, 207.33)" xlink:href="#linear-gradient-7"/><linearGradient id="New_Gradient_Swatch_1-23" x1="691.18" y1="-631.07" x2="730.07" y2="-631.07" gradientTransform="matrix(0.61, -0.8, 1.15, 0.15, 515.78, 1165.21)" xlink:href="#New_Gradient_Swatch_1"/></defs><title>mainGraphic</title><g class="cls-1"><g id="Layer_2" data-name="Layer 2"><g id="Layer_1-2" data-name="Layer 1"><line class="cls-2" x1="84.02" y1="442.8" x2="162.19" y2="430.85"/><line class="cls-3" x1="76.86" y1="444.48" x2="73.26" y2="506.78"/><circle class="cls-4" cx="77.83" cy="444.37" r="35.4"/><circle class="cls-5" cx="70.61" cy="530.47" r="22.32"/><circle class="cls-6" cx="185.6" cy="429.4" r="22.32"/><g class="cls-7"><rect class="cls-8" x="188.71" y="2" width="376" height="238.95" rx="17.2" ry="17.2"/><line class="cls-9" x1="189.15" y1="26.6" x2="564.28" y2="26.6"/><circle class="cls-10" cx="208.48" cy="14.74" r="5.27"/><circle class="cls-11" cx="208.48" cy="14.74" r="3.51"/><circle class="cls-12" cx="226.05" cy="14.74" r="3.51"/><circle class="cls-13" cx="243.62" cy="14.74" r="3.51"/></g><rect class="cls-14" x="211.56" y="43.73" width="183.17" height="13.18"/><rect class="cls-15" x="211.56" y="78.87" width="322.85" height="10.98"/><rect class="cls-16" x="211.56" y="109.62" width="277.17" height="10.54"/><rect class="cls-17" x="211.56" y="140.36" width="317.14" height="10.1"/><polygon class="cls-18" points="330.33 357.04 176.64 444.85 0.1 341.87 153.78 254.06 330.33 357.04"/><polygon class="cls-19" points="330.33 407.04 176.64 494.85 0.1 391.87 153.78 304.06 330.33 407.04"/><polygon class="cls-20" points="330.43 304.28 178.24 394.65 0 294.63 152.19 204.26 330.43 304.28"/><path class="cls-21" d="M153,308.35c2.92.17,5.3,1.56,5.5,3.21a2.1,2.1,0,0,1-1.24,2,6.85,6.85,0,0,1-3.55.76l-32.35-1.62a1,1,0,0,1-.63-.06,1.35,1.35,0,0,0-.28,0,3.56,3.56,0,0,1-.65-.2.66.66,0,0,1-.4-.05,4.76,4.76,0,0,0-.47-.15,1.76,1.76,0,0,0-.42-.12l-.42-.25c-.12-.07-.24-.07-.42-.18s-.19-.17-.25-.21l-.43-.25c-.12-.07-.08-.17-.14-.2s-.25-.21-.38-.35,0-.06-.07-.1-.27-.34-.28-.47-.13-.07,0-.13a.59.59,0,0,1-.11-.44l-2.46-18.69c-.14-1.61,2-2.86,4.78-2.73s5.3,1.55,5.5,3.21l2,15.71Z"/><path class="cls-21" d="M168.55,301.74,146,273.52c-1.07-1.36-.16-2.79,2.11-3.25,2.11-.43,4.82.35,5.83,1.68l22.64,28.26a1.71,1.71,0,0,1-.7,2.72,3.88,3.88,0,0,1-1.3.46C172.33,303.88,169.62,303.1,168.55,301.74Z"/><path class="cls-21" d="M198.34,268.15s.06,0,0,.07a1.36,1.36,0,0,1,.05.46l2.47,18.69a2.17,2.17,0,0,1-1.3,2,6.65,6.65,0,0,1-3.49.73c-2.86-.14-5.24-1.53-5.5-3.21l-2-15.72-27.2-1.32c-2.86-.13-5.3-1.55-5.5-3.2s2-2.83,4.79-2.74L193,265.54a6.58,6.58,0,0,1,.8,0s.17,0,.17,0c.35.08.58.09.82.17.06,0,.11,0,.17,0a5.42,5.42,0,0,0,.71.23c.06,0,.12,0,.24.08l.42.25.36.14a2.65,2.65,0,0,0,.26.21l.48.29c.07,0,0,.06.07.1.14.2.33.31.39.41s0,.07.13.14S198.2,268,198.34,268.15Z"/><line class="cls-22" x1="467.71" y1="283.95" x2="354.49" y2="490.6"/><line class="cls-23" x1="476.71" y1="263.95" x2="335.78" y2="142.66"/><circle class="cls-24" cx="475.21" cy="266.45" r="105.5"/><circle class="cls-25" cx="284.51" cy="93.5" r="66.5"/><circle class="cls-26" cx="315.53" cy="548.63" r="66.5"/><circle class="cls-21" cx="446.21" cy="450.45" r="12.5"/><circle class="cls-21" cx="140.71" cy="151.95" r="9"/><line class="cls-27" x1="588.71" y1="201.95" x2="588.71" y2="235.95"/><line class="cls-27" x1="571.71" y1="218.95" x2="605.71" y2="218.95"/><circle class="cls-21" cx="66.21" cy="491.45" r="5.5"/><line class="cls-27" x1="261.71" y1="151.95" x2="261.71" y2="185.95"/><line class="cls-27" x1="244.71" y1="168.95" x2="278.71" y2="168.95"/><g class="cls-28"><polygon class="cls-29" points="491.13 437.58 496.82 396.25 531.07 422.85 525.37 464.18 491.13 437.58"/><polygon class="cls-30" points="569.72 407.13 531.07 422.86 496.83 396.26 535.47 380.53 569.72 407.13"/><polygon class="cls-31" points="569.71 407.13 564.72 445.3 525.38 464.19 531.07 422.86 569.71 407.13"/></g><g class="cls-28"><polygon class="cls-32" points="155.53 159.78 133.53 127.71 173.82 124.58 195.82 156.64 155.53 159.78"/><polygon class="cls-33" points="190.61 89.5 173.84 124.58 133.54 127.72 150.31 92.63 190.61 89.5"/><polygon class="cls-34" points="190.61 89.5 211.11 118.94 195.84 156.65 173.84 124.58 190.61 89.5"/></g><g class="cls-35"><polygon class="cls-36" points="177.22 482.82 200.8 451.9 216.37 489.19 192.79 520.11 177.22 482.82"/><polygon class="cls-37" points="254.94 494.17 216.37 489.2 200.8 451.91 239.37 456.88 254.94 494.17"/><polygon class="cls-38" points="254.94 494.17 233.38 522.85 192.79 520.12 216.37 489.2 254.94 494.17"/></g></g></g></g></svg>