<svg xmlns="http://www.w3.org/2000/svg" viewBox="0 0 396.92 100.01"><defs><style>.cls-1{fill:#c7ddeb;}</style></defs><title>whiteLogo</title><g id="Layer_2" data-name="Layer 2"><g id="Layer_1-2" data-name="Layer 1"><path class="cls-1" d="M144.88,54.12q-4.77-4.21-14-6.77-6.42-2-9-3.84a5.45,5.45,0,0,1-2.62-4.65,6,6,0,0,1,2.5-5q2.51-1.93,7.09-1.93a24.65,24.65,0,0,1,5.93.69,15,15,0,0,1,4.25,1.6l1.45,7.65h8.37V30.49a26.86,26.86,0,0,0-8.87-5.2,33.55,33.55,0,0,0-11.7-1.95q-8.68.11-14.42,4.41a13.26,13.26,0,0,0-5.73,11.07,12.9,12.9,0,0,0,5.08,10.79q5.09,3.93,15,6.8,5.7,1.73,8,3.67a6.5,6.5,0,0,1,2.27,5.17,6,6,0,0,1-2.39,5q-2.39,1.88-7,1.87a21.55,21.55,0,0,1-6.44-.9A13.62,13.62,0,0,1,118.05,69L116.87,61h-8.65V72.66a24.55,24.55,0,0,0,8.89,5.82,32.4,32.4,0,0,0,12,2.1q9.25,0,14.92-4.13a13.22,13.22,0,0,0,5.66-11.28A14,14,0,0,0,144.88,54.12Z"/><path class="cls-1" d="M199.12,24.1H187.69L170.75,72.51l-4,.58v6.69h19V73.09l-3.86-.69,2.45-7.65h18l2.44,7.65-3.86.69v6.69h19V73.09l-4-.58ZM187,56.53l6.28-19.62h.23l6.27,19.62Z"/><polygon class="cls-1" points="270.75 24.1 270.75 30.83 276.72 31.98 276.72 61.54 276.49 61.58 254 24.1 242.84 24.1 236.91 24.1 236.91 30.83 242.84 31.98 242.84 71.94 236.91 73.09 236.91 79.78 259.97 79.78 259.97 73.09 254 71.94 254 42.34 254.23 42.3 276.72 79.78 287.85 79.78 287.85 31.98 293.81 30.83 293.81 24.1 287.85 24.1 270.75 24.1"/><polygon class="cls-1" points="310.68 30.83 316.65 31.98 316.65 71.94 310.68 73.09 310.68 79.78 333.74 79.78 333.74 73.09 327.77 71.94 327.77 31.98 333.74 30.83 333.74 24.1 310.68 24.1 310.68 30.83"/><path class="cls-1" d="M366.23,37.18q3.91-5.28,11.19-5.28a16.47,16.47,0,0,1,5.9,1,11.57,11.57,0,0,1,4.15,2.6l1.15,7.42h8.3v-11a25.09,25.09,0,0,0-8.61-6.21,27.92,27.92,0,0,0-11.66-2.35q-11.28,0-18.39,7.8T351.15,51V52.9q0,12.15,7.15,19.92t18.35,7.76a28.55,28.55,0,0,0,11.68-2.31,24,24,0,0,0,8.59-6.22V61h-8.3l-1.15,7.42a10,10,0,0,1-4.22,2.6,18.12,18.12,0,0,1-6,1,12.87,12.87,0,0,1-11-5.32c-2.6-3.54-3.9-8.15-3.9-13.8V51Q362.31,42.46,366.23,37.18Z"/><path class="cls-1" d="M67.75.24a11.85,11.85,0,0,0-13.63,15.3,3,3,0,0,0-1.12.52L31.56,32.28a18.81,18.81,0,1,0-8.09,32l6.27,13.38a2.91,2.91,0,0,0,.59.83,11.86,11.86,0,1,0,5.12-2.08,3,3,0,0,0-.28-1.3L29,61.92A18.78,18.78,0,0,0,35.26,37L56.62,20.85a3,3,0,0,0,.51-.5A11.85,11.85,0,1,0,67.75.24Z"/></g></g></svg>